<svg id="Icons" xmlns="http://www.w3.org/2000/svg" viewBox="0 0 500 500"><defs><style>.cls-1{fill:#f5333f;}.cls-2{fill:#011e41;}</style></defs><rect class="cls-1" x="108.89" y="235.31" width="77.12" height="58.57"/><rect class="cls-1" x="275.27" y="331.64" width="77.12" height="58.57" transform="translate(627.66 721.84) rotate(180)"/><polygon class="cls-2" points="446.08 477.51 53.91 477.51 53.91 193.77 92.47 193.77 92.47 209.77 69.92 209.77 69.92 461.51 430.08 461.51 430.08 209.77 407.5 209.77 407.5 193.77 446.08 193.77 446.08 477.51"/><path class="cls-2" d="M258,449.67H242a36.23,36.23,0,0,0-36.2-36.19H84.48V177.27H205.82A52.25,52.25,0,0,1,258,229.46ZM100.48,397.48H205.82A52,52,0,0,1,242,412.1V229.46a36.23,36.23,0,0,0-36.2-36.19H100.48Z"/><path class="cls-2" d="M258,449.67H242a52.25,52.25,0,0,1,52.2-52.19H399.52V193.27H294.18A36.23,36.23,0,0,0,258,229.46H242a52.25,52.25,0,0,1,52.2-52.19H415.52V413.48H294.18A36.23,36.23,0,0,0,258,449.67Z"/><polygon class="cls-2" points="410.28 443.98 89.72 443.98 89.72 405.48 105.72 405.48 105.72 427.98 394.28 427.98 394.28 405.48 410.28 405.48 410.28 443.98"/><rect class="cls-2" x="177.09" y="133.62" width="190.02" height="16"/><rect class="cls-2" x="379.69" y="133.62" width="20.27" height="16"/><rect class="cls-2" x="111.28" y="133.62" width="50.84" height="16"/><rect class="cls-2" x="121.25" y="301.61" width="92.4" height="16"/><rect class="cls-2" x="121.25" y="332.41" width="92.4" height="16"/><rect class="cls-2" x="121.25" y="363.2" width="92.4" height="16"/><path class="cls-2" d="M214,282.88H120.89V208.31H214Zm-77.11-16H198V224.31H136.89Z"/><rect class="cls-2" x="287.63" y="269.91" width="92.4" height="16"/><rect class="cls-2" x="287.63" y="239.11" width="92.4" height="16"/><rect class="cls-2" x="287.63" y="208.31" width="92.4" height="16"/><path class="cls-2" d="M380.39,379.2H287.27V304.64h93.12Zm-77.12-16h61.12V320.64H303.27Z"/><path class="cls-1" d="M365.07,78.28a186.28,186.28,0,0,0-230.14,0L125,65.7A202.29,202.29,0,0,1,375,65.7Z"/></svg>