<svg xmlns="http://www.w3.org/2000/svg" width="120.533" height="106.36" viewBox="0 0 120.533 106.36">
    <defs>
        <style>
            .cls-1,.cls-2{fill:none;stroke-miterlimit:10;stroke-width:4px}.cls-1{stroke:#f5333f}.cls-2{stroke:#12284c}
        </style>
    </defs>
    <g id="Icons" transform="translate(-29.697 -20.52)">
        <g id="Group_665" transform="translate(32.25 22.52)">
            <g id="Group_663">
                <path id="Path_14347" d="M167.27 273.91a14.658 14.658 0 0 1 14.657 14.657" class="cls-1" transform="translate(-136.894 -217.353)"/>
                <path id="Path_14348" d="M201.848 224.3a18.622 18.622 0 0 1-26.108-3.442" class="cls-1" transform="translate(-143.458 -176.238)"/>
                <path id="Path_14349" d="M86.327 229.877a13.194 13.194 0 0 1-8.6 3.186H59.342L32.25 191.548a7.628 7.628 0 0 1 10.844-.056l13.469 13.469" class="cls-1" transform="translate(-32.25 -151.745)"/>
                <path id="Line_188" d="M4.223 0L0 13.728" class="cls-1" transform="translate(59.686 53.108)"/>
                <path id="Path_14350" d="M116.683 65.666l-4.754-28.835a3.915 3.915 0 0 1 7.658-1.633l4.985 23.591a20.263 20.263 0 0 1 3.588-1.093l.623-31.26a3.915 3.915 0 1 1 7.829 0l.45 30.154c.632 0 3.134.2 4.056.331l4.414-24.221a3.915 3.915 0 0 1 7.7 1.4l-4.149 25.026a26.043 26.043 0 0 1 3.323 1.588l8.306-16.963a3.342 3.342 0 1 1 6.1 2.733L162.965 59" class="cls-1" transform="translate(-93.936 -22.52)"/>
            </g>
            <g id="Group_664" transform="translate(42.795 21.04)">
                <path id="Path_14351" d="M357.48 367.44a14.658 14.658 0 0 1 14.657 14.66" class="cls-2" transform="translate(-327.106 -310.881)"/>
                <path id="Path_14352" d="M392.058 317.832a18.622 18.622 0 0 1-26.108-3.442" class="cls-2" transform="translate(-333.671 -269.766)"/>
                <path id="Path_14353" d="M245.217 159.186l-4.754-28.835a3.915 3.915 0 0 1 7.658-1.633l4.985 23.591a20.265 20.265 0 0 1 3.588-1.093l.623-31.26a3.915 3.915 0 1 1 7.829 0l.45 30.154c.632 0 3.134.2 4.056.331l4.412-24.216a3.915 3.915 0 0 1 7.7 1.4l-4.151 25.026a26.039 26.039 0 0 1 3.323 1.588l8.306-16.963a3.342 3.342 0 0 1 6.1 2.733l-14.779 48.03a13.208 13.208 0 0 1-12.623 9.323h-18.378l-27.092-41.519a7.628 7.628 0 0 1 10.844-.056l13.469 13.469" class="cls-2" transform="translate(-222.47 -116.04)"/>
            </g>
        </g>
    </g>
</svg>
